<svg xmlns="http://www.w3.org/2000/svg" viewBox="0 0 1200 800">
  <defs><radialGradient id="bg"><stop stop-color="#17271f"/><stop offset="1" stop-color="#050706"/></radialGradient></defs>
  <rect width="1200" height="800" fill="url(#bg)"/><text x="70" y="90" fill="#d63d21" font-family="monospace" font-size="20" letter-spacing="6">RAG AI CHATBOT / KNOWLEDGE SYSTEM</text>
  <g stroke="#69a65b" stroke-opacity=".45" stroke-width="3"><path d="M600 390L300 220M600 390L330 585M600 390l310-170M600 390l300 205M600 390L600 150M600 390v270"/></g>
  <g fill="#69a65b"><circle cx="600" cy="390" r="72"/><circle cx="300" cy="220" r="24"/><circle cx="330" cy="585" r="24"/><circle cx="910" cy="220" r="24"/><circle cx="900" cy="595" r="24"/><circle cx="600" cy="150" r="24"/><circle cx="600" cy="650" r="24"/></g>
  <circle cx="600" cy="390" r="45" fill="#07100d"/><text x="574" y="397" fill="#f3eee8" font-family="monospace" font-size="18">RAG</text>
  <rect x="72" y="650" width="290" height="70" rx="10" fill="#0b120e" stroke="#69a65b" stroke-opacity=".4"/><text x="100" y="693" fill="#dcebd9" font-family="monospace" font-size="17">WEAVIATE VECTOR SEARCH</text>
  <rect x="838" y="650" width="290" height="70" rx="10" fill="#0b120e" stroke="#d63d21" stroke-opacity=".55"/><text x="875" y="693" fill="#f3eee8" font-family="monospace" font-size="17">AGENT RESPONSE</text>
</svg>
